<svg version="1.1" id="Layer_1" xmlns="http://www.w3.org/2000/svg" xmlns:xlink="http://www.w3.org/1999/xlink" x="0px" y="0px"
	 width="100%" viewBox="0 0 3001 409" enable-background="new 0 0 3001 409" xml:space="preserve">
<path fill="#FFFFFF" opacity="1.000000" stroke="none" 
	d="
M3002.000000,348.000000 
	C3002.000000,368.663391 3002.000000,389.326813 3002.000000,409.995117 
	C2176.300537,410.000000 1350.601196,410.000000 524.614868,409.603088 
	C528.902100,408.792023 533.565063,408.809570 538.035583,407.890869 
	C560.500854,403.274017 582.150879,396.559174 602.452881,385.366302 
	C627.632996,371.483948 649.007202,353.316101 666.510986,330.763977 
	C681.534790,311.407013 692.681396,289.781311 699.932434,266.288818 
	C705.324524,248.819031 708.205872,230.872681 708.941345,212.634216 
	C709.571716,197.001877 708.015564,181.520523 705.060913,166.127396 
	C700.170105,140.647751 690.851196,116.987732 676.717590,95.264397 
	C666.338074,79.311134 654.372681,64.764236 639.897156,52.179466 
	C627.812134,41.672924 614.916809,32.544823 600.863403,25.007545 
	C579.337402,13.462476 556.631958,5.523903 532.201843,2.932688 
	C528.771484,2.568845 525.399170,1.657768 522.000000,0.999999 
	C1348.666626,1.000000 2175.333252,1.000000 3002.000000,1.000000 
	C3002.000000,21.437901 3002.000000,41.768044 3001.531250,62.549095 
	C2985.463379,63.000000 2969.864014,63.000000 2953.399658,63.000000 
	C2953.399658,131.224792 2953.399658,198.901794 2953.399658,267.336456 
	C2939.849365,247.102539 2927.118408,227.671432 2913.957764,208.535980 
	C2892.783691,177.749649 2871.307617,147.170944 2849.995117,116.479782 
	C2838.280518,99.610046 2826.673584,82.665504 2814.898926,65.838127 
	C2813.999023,64.551903 2812.158447,63.140724 2810.738037,63.122318 
	C2795.624756,62.926483 2780.508057,63.000748 2765.206543,63.000748 
	C2765.206543,158.147491 2765.206543,252.869400 2765.206543,347.783142 
	C2781.146240,347.783142 2796.879395,347.783142 2812.500000,347.783142 
	C2812.500000,279.198242 2812.500000,210.830292 2812.500000,142.257248 
	C2812.998535,142.682510 2813.447754,142.924744 2813.698242,143.299866 
	C2827.784912,164.393875 2841.654297,185.636322 2855.976562,206.568619 
	C2874.698242,233.930557 2893.833252,261.009003 2912.682861,288.283844 
	C2925.636963,307.028259 2938.413818,325.895142 2951.252686,344.718842 
	C2952.774902,346.950226 2954.410645,348.162567 2957.510986,348.110870 
	C2972.337158,347.863678 2987.169678,348.000000 3002.000000,348.000000 
M1120.937866,67.425674 
	C1108.970337,65.950455 1097.016357,63.347084 1085.032837,63.202862 
	C1042.045166,62.685509 999.047485,63.000000 956.053589,63.000000 
	C954.452332,63.000000 952.851135,63.000000 951.281250,63.000000 
	C951.281250,158.289413 951.281250,253.015457 951.281250,347.707275 
	C967.632019,347.707275 983.699951,347.707275 1000.182129,347.707275 
	C1000.182129,308.348846 1000.182129,269.281555 1000.182129,230.244629 
	C1013.882996,229.380524 1013.936401,229.327850 1023.075134,238.596588 
	C1041.166870,256.945770 1059.133667,275.418335 1077.263916,293.729218 
	C1094.497803,311.134827 1111.838501,328.435547 1129.259766,345.653259 
	C1130.584229,346.962189 1132.920288,347.885345 1134.795288,347.900818 
	C1154.291138,348.061768 1173.788940,348.004089 1193.286133,347.985657 
	C1194.168579,347.984802 1195.050903,347.778900 1197.228271,347.506500 
	C1157.679932,307.989471 1118.942871,269.282959 1080.124390,230.495193 
	C1086.699219,229.969131 1092.745483,229.265121 1098.809448,229.042542 
	C1115.313965,228.436813 1130.686157,224.092850 1144.857910,215.601715 
	C1159.205078,207.005524 1169.146240,194.693512 1174.990234,179.116287 
	C1181.073608,162.901184 1181.965576,146.298340 1179.117432,129.205856 
	C1176.407227,112.940941 1169.515625,98.956955 1157.885254,87.547615 
	C1147.774902,77.629395 1135.374146,71.373901 1120.937866,67.425674 
M2411.467529,242.974197 
	C2414.824219,252.337067 2417.381836,262.088257 2421.705322,270.981018 
	C2430.363525,288.790161 2442.006348,304.433594 2457.006592,317.747986 
	C2472.675049,331.655334 2490.285889,341.949005 2509.992920,348.314331 
	C2528.835449,354.400574 2548.193115,357.259308 2568.280273,355.226471 
	C2580.641846,353.975464 2592.671387,351.964233 2604.438965,348.161438 
	C2626.911621,340.899445 2646.477783,328.645508 2663.145508,312.145294 
	C2677.074463,298.356384 2688.093750,282.291138 2695.502930,263.989960 
	C2702.884277,245.757324 2707.347656,226.893158 2706.966064,207.097153 
	C2706.848633,201.007614 2706.366943,194.923752 2705.996094,188.840714 
	C2705.080078,173.816574 2700.851562,159.590225 2694.927246,145.902145 
	C2685.155518,123.324486 2670.480469,104.427330 2651.413574,88.818924 
	C2638.128418,77.943527 2623.505615,69.586670 2607.318604,64.026855 
	C2588.407959,57.531498 2569.030273,53.965034 2548.935303,56.022785 
	C2540.510254,56.885498 2531.978271,57.372730 2523.724365,59.116535 
	C2495.231934,65.136002 2470.829834,79.158630 2450.326660,99.526161 
	C2436.919434,112.844696 2426.327881,128.412842 2418.977539,146.019821 
	C2411.791260,163.235092 2407.610840,181.065155 2406.957275,199.754318 
	C2406.454834,214.117035 2407.875977,228.246490 2411.467529,242.974197 
M1306.534546,222.000000 
	C1351.615845,222.000000 1396.697144,222.000000 1441.691650,222.000000 
	C1441.691650,207.666748 1441.691650,193.932846 1441.691650,179.795258 
	C1393.324219,179.795258 1345.263916,179.795258 1297.313477,179.795258 
	C1297.313477,154.986664 1297.313477,130.588852 1297.313477,105.785851 
	C1348.352051,105.785851 1399.078369,105.785851 1449.678955,105.785851 
	C1449.678955,91.307671 1449.678955,77.240234 1449.678955,63.313866 
	C1382.302490,63.313866 1315.247437,63.313866 1248.298096,63.313866 
	C1248.298096,158.343857 1248.298096,253.059708 1248.298096,347.709045 
	C1315.651611,347.709045 1382.706543,347.709045 1449.699585,347.709045 
	C1449.699585,333.349304 1449.699585,319.282379 1449.699585,304.811920 
	C1398.674072,304.811920 1347.947754,304.811920 1297.303711,304.811920 
	C1297.303711,277.005280 1297.303711,249.608398 1297.303711,222.000000 
	C1300.252319,222.000000 1302.898926,222.000000 1306.534546,222.000000 
M1994.046753,289.404114 
	C1985.426636,268.442993 1976.735718,247.510620 1968.205688,226.512894 
	C1959.193970,204.329758 1950.413330,182.052689 1941.391235,159.873749 
	C1928.671753,128.605652 1915.844360,97.381256 1902.954346,66.183197 
	C1902.419556,64.889114 1900.793091,63.153473 1899.653687,63.137188 
	C1885.176392,62.930321 1870.695190,63.000980 1856.665039,63.000980 
	C1817.939697,158.136856 1779.391968,252.836319 1740.655273,348.000000 
	C1756.848633,348.000000 1772.175415,347.829346 1787.493286,348.128082 
	C1791.023682,348.196960 1792.410278,346.811096 1793.510254,344.006165 
	C1801.473877,323.696930 1809.479004,303.403900 1817.512451,283.000153 
	C1857.791382,283.000153 1897.944336,282.975739 1938.096558,283.109222 
	C1939.402466,283.113586 1941.419556,284.441650 1941.899048,285.636627 
	C1949.738403,305.171082 1957.376099,324.786377 1965.080811,344.375031 
	C1966.048828,346.835846 1967.447876,348.230682 1970.593262,348.101959 
	C1978.246094,347.788757 1985.920288,347.999969 1993.585938,348.000000 
	C2001.348511,348.000000 2009.110962,348.000000 2017.849731,348.000000 
	C2015.355347,341.864441 2013.169678,336.546448 2011.028442,331.210663 
	C2005.521484,317.488190 2000.034180,303.757874 1994.046753,289.404114 
M2150.000000,240.500000 
	C2150.000000,195.748886 2150.000000,150.997757 2150.000000,105.834381 
	C2180.968018,105.834381 2211.366211,105.834381 2241.700684,105.834381 
	C2241.700684,91.350967 2241.700684,77.284149 2241.700684,63.288338 
	C2164.015137,63.288338 2086.629639,63.288338 2009.297729,63.288338 
	C2009.297729,77.645340 2009.297729,91.712105 2009.297729,106.188675 
	C2039.991455,106.188675 2070.389404,106.188675 2101.180664,106.188675 
	C2101.180664,186.988342 2101.180664,267.373962 2101.180664,347.701782 
	C2117.646973,347.701782 2133.713379,347.701782 2150.000000,347.701782 
	C2150.000000,312.102661 2150.000000,276.801331 2150.000000,240.500000 
M1519.517456,348.000000 
	C1580.265991,348.000000 1641.014404,348.000000 1701.698486,348.000000 
	C1701.698486,333.348083 1701.698486,319.280579 1701.698486,304.806091 
	C1653.002686,304.806091 1604.607178,304.806091 1555.811157,304.806091 
	C1555.811157,224.005280 1555.811157,143.615952 1555.811157,63.306328 
	C1539.671509,63.306328 1523.937744,63.306328 1508.296021,63.306328 
	C1508.296021,158.332397 1508.296021,253.051865 1508.296021,348.000000 
	C1511.901245,348.000000 1515.212402,348.000000 1519.517456,348.000000 
M2304.658203,63.000046 
	C2300.089111,62.115124 2301.009033,65.390839 2301.008789,67.879478 
	C2300.998291,159.695267 2301.000000,251.511047 2301.000000,343.326843 
	C2301.000000,344.772705 2301.000000,346.218536 2301.000000,347.750183 
	C2317.212891,347.750183 2332.946289,347.750183 2348.755615,347.750183 
	C2348.755615,252.777481 2348.755615,158.054794 2348.755615,63.000000 
	C2334.218262,63.000000 2319.923096,63.000000 2304.658203,63.000046 
z"/>
<path fill="#1E2915" opacity="1.000000" stroke="none" 
	d="
M521.531372,0.999999 
	C525.399170,1.657768 528.771484,2.568845 532.201843,2.932688 
	C556.631958,5.523903 579.337402,13.462476 600.863403,25.007545 
	C614.916809,32.544823 627.812134,41.672924 639.897156,52.179466 
	C654.372681,64.764236 666.338074,79.311134 676.717590,95.264397 
	C690.851196,116.987732 700.170105,140.647751 705.060913,166.127396 
	C708.015564,181.520523 709.571716,197.001877 708.941345,212.634216 
	C708.205872,230.872681 705.324524,248.819031 699.932434,266.288818 
	C692.681396,289.781311 681.534790,311.407013 666.510986,330.763977 
	C649.007202,353.316101 627.632996,371.483948 602.452881,385.366302 
	C582.150879,396.559174 560.500854,403.274017 538.035583,407.890869 
	C533.565063,408.809570 528.902100,408.792023 524.163940,409.603088 
	C508.312439,410.000000 492.624878,410.000000 476.459076,409.574524 
	C475.383453,408.767517 474.826050,408.151184 474.182373,408.041656 
	C469.223969,407.198059 464.177887,406.758667 459.290710,405.625793 
	C433.604736,399.671661 409.814362,389.324371 387.945496,374.543762 
	C386.789551,373.762512 384.688049,373.558380 383.337982,374.012024 
	C368.020416,379.158569 352.209564,382.361237 336.181915,382.733307 
	C322.962341,383.040222 309.577179,381.764954 296.461365,379.849121 
	C268.108643,375.707611 242.776489,364.047180 220.146896,346.563599 
	C215.834518,343.231903 212.378235,341.757080 206.552521,344.485809 
	C193.011780,350.828125 178.278778,353.780945 163.426834,354.804443 
	C153.414780,355.494415 143.265594,354.514191 133.195084,353.964050 
	C116.335846,353.042969 100.538101,347.760803 85.463242,340.672180 
	C65.208206,331.147644 48.404881,317.038971 34.181107,299.745300 
	C19.663631,282.094543 10.005082,262.170807 4.889030,239.932220 
	C4.100509,236.504654 2.321131,233.305038 0.999997,230.000000 
	C1.000000,229.250000 1.000000,228.500000 1.373107,227.242554 
	C1.497476,224.823395 1.248739,222.911697 1.000001,221.000000 
	C1.000000,210.979111 1.000000,200.958206 1.351805,190.361603 
	C1.469074,188.523926 1.234538,187.261963 1.000001,186.000000 
	C1.000000,185.555557 1.000000,185.111099 1.379160,184.215363 
	C2.170954,182.917679 2.719967,182.110382 2.975615,181.218979 
	C6.383618,169.335617 8.622442,156.967545 13.367491,145.648804 
	C22.644651,123.519234 37.094254,104.929314 55.769093,89.606224 
	C67.023056,80.372131 79.298691,72.808815 92.599014,67.306412 
	C116.160507,57.558918 140.730011,54.130600 166.310364,56.827648 
	C182.897858,58.576546 198.514252,62.963032 213.557831,69.603241 
	C226.998291,58.487549 241.560791,49.351128 257.707062,42.634884 
	C283.302094,31.988314 309.655884,26.964327 337.509857,28.803928 
	C353.384735,29.852375 368.685822,32.815521 383.830933,37.289124 
	C384.968506,37.625145 386.648132,37.394253 387.642792,36.754116 
	C400.953430,28.187681 414.649231,20.455444 429.509644,14.768156 
	C444.201111,9.145514 459.216156,5.063553 474.797363,2.973891 
	C478.552277,2.470303 482.266876,1.666008 486.000000,1.000000 
	C497.687561,1.000000 509.375122,1.000000 521.531372,0.999999 
M429.461212,349.024323 
	C434.190582,345.297516 439.180481,341.854340 443.602081,337.792511 
	C458.873962,323.763153 472.035889,308.029114 482.064667,289.738220 
	C496.476105,263.454010 503.155457,235.146561 503.813660,205.435120 
	C504.018066,196.207504 502.069977,186.924500 501.008179,177.678238 
	C499.073395,160.829346 493.677338,144.970245 486.292328,129.851166 
	C475.293396,107.333450 460.429840,87.753532 441.129974,71.516106 
	C425.374023,58.260303 407.998596,47.937477 388.869232,40.505527 
	C387.643616,40.029366 385.486481,40.362034 384.469421,41.188332 
	C375.969849,48.093620 367.138519,54.702446 359.397888,62.397186 
	C352.248840,69.503792 345.994995,77.594574 339.922394,85.683907 
	C324.457733,106.284309 313.344025,129.127365 307.122375,154.121170 
	C304.043274,166.490540 302.260529,179.182587 299.757965,192.434433 
	C299.102905,190.937546 298.323669,189.727798 298.036926,188.410812 
	C295.839661,178.318314 294.639343,167.905960 291.407288,158.164322 
	C285.788971,141.230408 277.175781,125.806145 265.618439,111.935898 
	C251.793243,95.343994 235.397034,82.191513 216.375290,72.217934 
	C215.197678,71.600479 212.549149,72.182022 211.497650,73.173569 
	C197.749695,86.137711 185.358398,100.115341 175.617386,116.558533 
	C160.859589,141.470184 153.004578,168.361404 151.231812,196.948212 
	C150.503189,208.697388 151.473221,220.734222 153.204697,232.412766 
	C156.122589,252.093460 162.493988,270.806244 172.005051,288.415802 
	C182.667053,308.156311 196.636017,325.140289 213.559006,339.739044 
	C215.386353,338.997589 217.256699,338.461884 218.906830,337.534363 
	C234.282852,328.891693 248.380188,318.737061 260.292328,305.455017 
	C268.729034,296.048065 276.043427,285.984253 281.927063,274.932678 
	C290.725067,258.406891 296.646759,240.897552 298.057343,222.055481 
	C298.110474,221.345749 298.960358,220.695679 299.438965,220.017807 
	C299.958038,220.656982 300.830292,221.240341 300.941467,221.943985 
	C302.032104,228.844955 302.868256,235.787277 304.018341,242.677521 
	C308.543518,269.788483 319.025726,294.573730 334.035522,317.438202 
	C345.971222,335.619934 360.653870,351.373322 377.531281,365.147400 
	C383.395844,369.933624 388.591095,372.241211 395.967438,367.718689 
	C406.656403,361.165100 417.928741,355.563019 429.461212,349.024323 
z"/>
<path fill="#1E2915" opacity="1.000000" stroke="none" 
	d="
M3002.000000,347.531342 
	C2987.169678,348.000000 2972.337158,347.863678 2957.510986,348.110870 
	C2954.410645,348.162567 2952.774902,346.950226 2951.252686,344.718842 
	C2938.413818,325.895142 2925.636963,307.028259 2912.682861,288.283844 
	C2893.833252,261.009003 2874.698242,233.930557 2855.976562,206.568619 
	C2841.654297,185.636322 2827.784912,164.393875 2813.698242,143.299866 
	C2813.447754,142.924744 2812.998535,142.682510 2812.500000,142.257248 
	C2812.500000,210.830292 2812.500000,279.198242 2812.500000,347.783142 
	C2796.879395,347.783142 2781.146240,347.783142 2765.206543,347.783142 
	C2765.206543,252.869400 2765.206543,158.147491 2765.206543,63.000748 
	C2780.508057,63.000748 2795.624756,62.926483 2810.738037,63.122318 
	C2812.158447,63.140724 2813.999023,64.551903 2814.898926,65.838127 
	C2826.673584,82.665504 2838.280518,99.610046 2849.995117,116.479782 
	C2871.307617,147.170944 2892.783691,177.749649 2913.957764,208.535980 
	C2927.118408,227.671432 2939.849365,247.102539 2953.399658,267.336456 
	C2953.399658,198.901794 2953.399658,131.224792 2953.399658,63.000000 
	C2969.864014,63.000000 2985.463379,63.000000 3001.531250,63.000000 
	C3002.000000,157.687561 3002.000000,252.375122 3002.000000,347.531342 
z"/>
<path fill="#FFFFFF" opacity="1.000000" stroke="none" 
	d="
M485.531342,1.000000 
	C482.266876,1.666008 478.552277,2.470303 474.797363,2.973891 
	C459.216156,5.063553 444.201111,9.145514 429.509644,14.768156 
	C414.649231,20.455444 400.953430,28.187681 387.642792,36.754116 
	C386.648132,37.394253 384.968506,37.625145 383.830933,37.289124 
	C368.685822,32.815521 353.384735,29.852375 337.509857,28.803928 
	C309.655884,26.964327 283.302094,31.988314 257.707062,42.634884 
	C241.560791,49.351128 226.998291,58.487549 213.557831,69.603241 
	C198.514252,62.963032 182.897858,58.576546 166.310364,56.827648 
	C140.730011,54.130600 116.160507,57.558918 92.599014,67.306412 
	C79.298691,72.808815 67.023056,80.372131 55.769093,89.606224 
	C37.094254,104.929314 22.644651,123.519234 13.367491,145.648804 
	C8.622442,156.967545 6.383618,169.335617 2.975615,181.218979 
	C2.719967,182.110382 2.170954,182.917679 1.379160,183.882034 
	C1.000000,123.039955 1.000000,62.079918 1.000000,1.000000 
	C162.354202,1.000000 323.708435,1.000000 485.531342,1.000000 
z"/>
<path fill="#FFFFFF" opacity="1.000000" stroke="none" 
	d="
M0.999997,230.468658 
	C2.321131,233.305038 4.100509,236.504654 4.889030,239.932220 
	C10.005082,262.170807 19.663631,282.094543 34.181107,299.745300 
	C48.404881,317.038971 65.208206,331.147644 85.463242,340.672180 
	C100.538101,347.760803 116.335846,353.042969 133.195084,353.964050 
	C143.265594,354.514191 153.414780,355.494415 163.426834,354.804443 
	C178.278778,353.780945 193.011780,350.828125 206.552521,344.485809 
	C212.378235,341.757080 215.834518,343.231903 220.146896,346.563599 
	C242.776489,364.047180 268.108643,375.707611 296.461365,379.849121 
	C309.577179,381.764954 322.962341,383.040222 336.181915,382.733307 
	C352.209564,382.361237 368.020416,379.158569 383.337982,374.012024 
	C384.688049,373.558380 386.789551,373.762512 387.945496,374.543762 
	C409.814362,389.324371 433.604736,399.671661 459.290710,405.625793 
	C464.177887,406.758667 469.223969,407.198059 474.182373,408.041656 
	C474.826050,408.151184 475.383453,408.767517 475.990417,409.574524 
	C317.772430,410.000000 159.544876,410.000000 1.000000,410.000000 
	C1.000000,350.312805 1.000000,290.625061 0.999997,230.468658 
z"/>
<path fill="#FFFFFF" opacity="1.000000" stroke="none" 
	d="
M1.000001,221.428467 
	C1.248739,222.911697 1.497476,224.823395 1.373107,226.867554 
	C1.000000,225.285645 1.000000,223.571289 1.000001,221.428467 
z"/>
<path fill="#FFFFFF" opacity="1.000000" stroke="none" 
	d="
M1.000001,186.399979 
	C1.234538,187.261963 1.469074,188.523926 1.351805,189.892944 
	C1.000000,188.933319 1.000000,187.866638 1.000001,186.399979 
z"/>
<path fill="#1E2915" opacity="1.000000" stroke="none" 
	d="
M1121.269043,67.684769 
	C1135.374146,71.373901 1147.774902,77.629395 1157.885254,87.547615 
	C1169.515625,98.956955 1176.407227,112.940941 1179.117432,129.205856 
	C1181.965576,146.298340 1181.073608,162.901184 1174.990234,179.116287 
	C1169.146240,194.693512 1159.205078,207.005524 1144.857910,215.601715 
	C1130.686157,224.092850 1115.313965,228.436813 1098.809448,229.042542 
	C1092.745483,229.265121 1086.699219,229.969131 1080.124390,230.495193 
	C1118.942871,269.282959 1157.679932,307.989471 1197.228271,347.506500 
	C1195.050903,347.778900 1194.168579,347.984802 1193.286133,347.985657 
	C1173.788940,348.004089 1154.291138,348.061768 1134.795288,347.900818 
	C1132.920288,347.885345 1130.584229,346.962189 1129.259766,345.653259 
	C1111.838501,328.435547 1094.497803,311.134827 1077.263916,293.729218 
	C1059.133667,275.418335 1041.166870,256.945770 1023.075134,238.596588 
	C1013.936401,229.327850 1013.882996,229.380524 1000.182129,230.244629 
	C1000.182129,269.281555 1000.182129,308.348846 1000.182129,347.707275 
	C983.699951,347.707275 967.632019,347.707275 951.281250,347.707275 
	C951.281250,253.015457 951.281250,158.289413 951.281250,63.000000 
	C952.851135,63.000000 954.452332,63.000000 956.053589,63.000000 
	C999.047485,63.000000 1042.045166,62.685509 1085.032837,63.202862 
	C1097.016357,63.347084 1108.970337,65.950455 1121.269043,67.684769 
M1124.046265,173.430664 
	C1133.786377,160.775604 1134.171753,146.293320 1130.243774,131.998962 
	C1125.201416,113.649925 1111.077637,106.708168 1093.816040,106.230377 
	C1063.857544,105.401146 1033.859375,105.996246 1003.877930,106.013184 
	C1002.619324,106.013893 1001.360779,106.207428 1000.339417,106.291580 
	C1000.339417,133.411926 1000.339417,160.136887 1000.339417,187.000000 
	C1031.149902,187.000000 1061.621338,187.072388 1092.092285,186.964386 
	C1104.272949,186.921219 1115.096924,183.209335 1124.046265,173.430664 
z"/>
<path fill="#1E2915" opacity="1.000000" stroke="none" 
	d="
M2411.254883,242.603210 
	C2407.875977,228.246490 2406.454834,214.117035 2406.957275,199.754318 
	C2407.610840,181.065155 2411.791260,163.235092 2418.977539,146.019821 
	C2426.327881,128.412842 2436.919434,112.844696 2450.326660,99.526161 
	C2470.829834,79.158630 2495.231934,65.136002 2523.724365,59.116535 
	C2531.978271,57.372730 2540.510254,56.885498 2548.935303,56.022785 
	C2569.030273,53.965034 2588.407959,57.531498 2607.318604,64.026855 
	C2623.505615,69.586670 2638.128418,77.943527 2651.413574,88.818924 
	C2670.480469,104.427330 2685.155518,123.324486 2694.927246,145.902145 
	C2700.851562,159.590225 2705.080078,173.816574 2705.996094,188.840714 
	C2706.366943,194.923752 2706.848633,201.007614 2706.966064,207.097153 
	C2707.347656,226.893158 2702.884277,245.757324 2695.502930,263.989960 
	C2688.093750,282.291138 2677.074463,298.356384 2663.145508,312.145294 
	C2646.477783,328.645508 2626.911621,340.899445 2604.438965,348.161438 
	C2592.671387,351.964233 2580.641846,353.975464 2568.280273,355.226471 
	C2548.193115,357.259308 2528.835449,354.400574 2509.992920,348.314331 
	C2490.285889,341.949005 2472.675049,331.655334 2457.006592,317.747986 
	C2442.006348,304.433594 2430.363525,288.790161 2421.705322,270.981018 
	C2417.381836,262.088257 2414.824219,252.337067 2411.254883,242.603210 
M2656.603760,230.912323 
	C2656.790283,229.451645 2656.837646,227.956940 2657.184814,226.535568 
	C2660.250000,214.000107 2660.396484,201.502762 2658.119141,188.741959 
	C2653.465332,162.661438 2641.043213,141.176498 2620.289551,124.981491 
	C2595.036621,105.275330 2566.058105,98.233162 2534.866943,105.282036 
	C2503.478027,112.375565 2479.674072,130.916473 2465.212158,159.824631 
	C2455.380371,179.477737 2451.711914,200.435196 2455.818359,222.685715 
	C2459.551514,242.913193 2468.193848,260.306396 2481.895020,275.338837 
	C2491.441406,285.813110 2502.991943,293.503571 2515.849854,299.469482 
	C2534.898193,308.307861 2554.921143,310.222412 2575.167480,306.694183 
	C2592.503418,303.673065 2608.130127,296.055847 2621.957764,284.695923 
	C2639.141113,270.579407 2650.423584,252.951691 2656.603760,230.912323 
z"/>
<path fill="#1E2915" opacity="1.000000" stroke="none" 
	d="
M1306.040039,222.000000 
	C1302.898926,222.000000 1300.252319,222.000000 1297.303711,222.000000 
	C1297.303711,249.608398 1297.303711,277.005280 1297.303711,304.811920 
	C1347.947754,304.811920 1398.674072,304.811920 1449.699585,304.811920 
	C1449.699585,319.282379 1449.699585,333.349304 1449.699585,347.709045 
	C1382.706543,347.709045 1315.651611,347.709045 1248.298096,347.709045 
	C1248.298096,253.059708 1248.298096,158.343857 1248.298096,63.313866 
	C1315.247437,63.313866 1382.302490,63.313866 1449.678955,63.313866 
	C1449.678955,77.240234 1449.678955,91.307671 1449.678955,105.785851 
	C1399.078369,105.785851 1348.352051,105.785851 1297.313477,105.785851 
	C1297.313477,130.588852 1297.313477,154.986664 1297.313477,179.795258 
	C1345.263916,179.795258 1393.324219,179.795258 1441.691650,179.795258 
	C1441.691650,193.932846 1441.691650,207.666748 1441.691650,222.000000 
	C1396.697144,222.000000 1351.615845,222.000000 1306.040039,222.000000 
z"/>
<path fill="#1E2915" opacity="1.000000" stroke="none" 
	d="
M1994.292847,289.717407 
	C2000.034180,303.757874 2005.521484,317.488190 2011.028442,331.210663 
	C2013.169678,336.546448 2015.355347,341.864441 2017.849731,348.000000 
	C2009.110962,348.000000 2001.348511,348.000000 1993.585938,348.000000 
	C1985.920288,347.999969 1978.246094,347.788757 1970.593262,348.101959 
	C1967.447876,348.230682 1966.048828,346.835846 1965.080811,344.375031 
	C1957.376099,324.786377 1949.738403,305.171082 1941.899048,285.636627 
	C1941.419556,284.441650 1939.402466,283.113586 1938.096558,283.109222 
	C1897.944336,282.975739 1857.791382,283.000153 1817.512451,283.000153 
	C1809.479004,303.403900 1801.473877,323.696930 1793.510254,344.006165 
	C1792.410278,346.811096 1791.023682,348.196960 1787.493286,348.128082 
	C1772.175415,347.829346 1756.848633,348.000000 1740.655273,348.000000 
	C1779.391968,252.836319 1817.939697,158.136856 1856.665039,63.000980 
	C1870.695190,63.000980 1885.176392,62.930321 1899.653687,63.137188 
	C1900.793091,63.153473 1902.419556,64.889114 1902.954346,66.183197 
	C1915.844360,97.381256 1928.671753,128.605652 1941.391235,159.873749 
	C1950.413330,182.052689 1959.193970,204.329758 1968.205688,226.512894 
	C1976.735718,247.510620 1985.426636,268.442993 1994.292847,289.717407 
M1868.952026,153.351089 
	C1857.607544,182.096375 1846.263062,210.841660 1834.820557,239.835541 
	C1864.756348,239.835541 1894.135010,239.835541 1923.566650,239.835541 
	C1908.693970,201.579987 1893.883545,163.484528 1879.007568,125.220451 
	C1875.701904,134.244949 1872.350586,143.394196 1868.952026,153.351089 
z"/>
<path fill="#1E2915" opacity="1.000000" stroke="none" 
	d="
M2150.000000,241.000000 
	C2150.000000,276.801331 2150.000000,312.102661 2150.000000,347.701782 
	C2133.713379,347.701782 2117.646973,347.701782 2101.180664,347.701782 
	C2101.180664,267.373962 2101.180664,186.988342 2101.180664,106.188675 
	C2070.389404,106.188675 2039.991455,106.188675 2009.297729,106.188675 
	C2009.297729,91.712105 2009.297729,77.645340 2009.297729,63.288338 
	C2086.629639,63.288338 2164.015137,63.288338 2241.700684,63.288338 
	C2241.700684,77.284149 2241.700684,91.350967 2241.700684,105.834381 
	C2211.366211,105.834381 2180.968018,105.834381 2150.000000,105.834381 
	C2150.000000,150.997757 2150.000000,195.748886 2150.000000,241.000000 
z"/>
<path fill="#1E2915" opacity="1.000000" stroke="none" 
	d="
M1519.020508,348.000000 
	C1515.212402,348.000000 1511.901245,348.000000 1508.296021,348.000000 
	C1508.296021,253.051865 1508.296021,158.332397 1508.296021,63.306328 
	C1523.937744,63.306328 1539.671509,63.306328 1555.811157,63.306328 
	C1555.811157,143.615952 1555.811157,224.005280 1555.811157,304.806091 
	C1604.607178,304.806091 1653.002686,304.806091 1701.698486,304.806091 
	C1701.698486,319.280579 1701.698486,333.348083 1701.698486,348.000000 
	C1641.014404,348.000000 1580.265991,348.000000 1519.020508,348.000000 
z"/>
<path fill="#1E2915" opacity="1.000000" stroke="none" 
	d="
M2305.143066,63.000023 
	C2319.923096,63.000000 2334.218262,63.000000 2348.755615,63.000000 
	C2348.755615,158.054794 2348.755615,252.777481 2348.755615,347.750183 
	C2332.946289,347.750183 2317.212891,347.750183 2301.000000,347.750183 
	C2301.000000,346.218536 2301.000000,344.772705 2301.000000,343.326843 
	C2301.000000,251.511047 2300.998291,159.695267 2301.008789,67.879478 
	C2301.009033,65.390839 2300.089111,62.115124 2305.143066,63.000023 
z"/>
<path fill="#FFFFFF" opacity="1.000000" stroke="none" 
	d="
M429.206726,349.289703 
	C417.928741,355.563019 406.656403,361.165100 395.967438,367.718689 
	C388.591095,372.241211 383.395844,369.933624 377.531281,365.147400 
	C360.653870,351.373322 345.971222,335.619934 334.035522,317.438202 
	C319.025726,294.573730 308.543518,269.788483 304.018341,242.677521 
	C302.868256,235.787277 302.032104,228.844955 300.941467,221.943985 
	C300.830292,221.240341 299.958038,220.656982 299.438965,220.017807 
	C298.960358,220.695679 298.110474,221.345749 298.057343,222.055481 
	C296.646759,240.897552 290.725067,258.406891 281.927063,274.932678 
	C276.043427,285.984253 268.729034,296.048065 260.292328,305.455017 
	C248.380188,318.737061 234.282852,328.891693 218.906830,337.534363 
	C217.256699,338.461884 215.386353,338.997589 213.559006,339.739044 
	C196.636017,325.140289 182.667053,308.156311 172.005051,288.415802 
	C162.493988,270.806244 156.122589,252.093460 153.204697,232.412766 
	C151.473221,220.734222 150.503189,208.697388 151.231812,196.948212 
	C153.004578,168.361404 160.859589,141.470184 175.617386,116.558533 
	C185.358398,100.115341 197.749695,86.137711 211.497650,73.173569 
	C212.549149,72.182022 215.197678,71.600479 216.375290,72.217934 
	C235.397034,82.191513 251.793243,95.343994 265.618439,111.935898 
	C277.175781,125.806145 285.788971,141.230408 291.407288,158.164322 
	C294.639343,167.905960 295.839661,178.318314 298.036926,188.410812 
	C298.323669,189.727798 299.102905,190.937546 299.757965,192.434433 
	C302.260529,179.182587 304.043274,166.490540 307.122375,154.121170 
	C313.344025,129.127365 324.457733,106.284309 339.922394,85.683907 
	C345.994995,77.594574 352.248840,69.503792 359.397888,62.397186 
	C367.138519,54.702446 375.969849,48.093620 384.469421,41.188332 
	C385.486481,40.362034 387.643616,40.029366 388.869232,40.505527 
	C407.998596,47.937477 425.374023,58.260303 441.129974,71.516106 
	C460.429840,87.753532 475.293396,107.333450 486.292328,129.851166 
	C493.677338,144.970245 499.073395,160.829346 501.008179,177.678238 
	C502.069977,186.924500 504.018066,196.207504 503.813660,205.435120 
	C503.155457,235.146561 496.476105,263.454010 482.064667,289.738220 
	C472.035889,308.029114 458.873962,323.763153 443.602081,337.792511 
	C439.180481,341.854340 434.190582,345.297516 429.206726,349.289703 
z"/>
<path fill="#FFFFFF" opacity="1.000000" stroke="none" 
	d="
M1123.800049,173.697388 
	C1115.096924,183.209335 1104.272949,186.921219 1092.092285,186.964386 
	C1061.621338,187.072388 1031.149902,187.000000 1000.339417,187.000000 
	C1000.339417,160.136887 1000.339417,133.411926 1000.339417,106.291580 
	C1001.360779,106.207428 1002.619324,106.013893 1003.877930,106.013184 
	C1033.859375,105.996246 1063.857544,105.401146 1093.816040,106.230377 
	C1111.077637,106.708168 1125.201416,113.649925 1130.243774,131.998962 
	C1134.171753,146.293320 1133.786377,160.775604 1123.800049,173.697388 
z"/>
<path fill="#FFFFFF" opacity="1.000000" stroke="none" 
	d="
M2656.331787,231.237213 
	C2650.423584,252.951691 2639.141113,270.579407 2621.957764,284.695923 
	C2608.130127,296.055847 2592.503418,303.673065 2575.167480,306.694183 
	C2554.921143,310.222412 2534.898193,308.307861 2515.849854,299.469482 
	C2502.991943,293.503571 2491.441406,285.813110 2481.895020,275.338837 
	C2468.193848,260.306396 2459.551514,242.913193 2455.818359,222.685715 
	C2451.711914,200.435196 2455.380371,179.477737 2465.212158,159.824631 
	C2479.674072,130.916473 2503.478027,112.375565 2534.866943,105.282036 
	C2566.058105,98.233162 2595.036621,105.275330 2620.289551,124.981491 
	C2641.043213,141.176498 2653.465332,162.661438 2658.119141,188.741959 
	C2660.396484,201.502762 2660.250000,214.000107 2657.184814,226.535568 
	C2656.837646,227.956940 2656.790283,229.451645 2656.331787,231.237213 
z"/>
<path fill="#FFFFFF" opacity="1.000000" stroke="none" 
	d="
M1868.975708,152.947266 
	C1872.350586,143.394196 1875.701904,134.244949 1879.007568,125.220451 
	C1893.883545,163.484528 1908.693970,201.579987 1923.566650,239.835541 
	C1894.135010,239.835541 1864.756348,239.835541 1834.820557,239.835541 
	C1846.263062,210.841660 1857.607544,182.096375 1868.975708,152.947266 
z"/>
</svg>